<?xml version="1.0" encoding="utf-8" ?>
<svg baseProfile="tiny" height="300px" version="1.2" width="300px" xmlns="http://www.w3.org/2000/svg" xmlns:ev="http://www.w3.org/2001/xml-events" xmlns:xlink="http://www.w3.org/1999/xlink"><defs><linearGradient id="outerGradRed" x1="0%" x2="100%" y1="0%" y2="100%"><stop offset="0" stop-color="crimson" /><stop offset="1" stop-color="darkred" /></linearGradient></defs><circle cx="50%" cy="50%" fill="none" r="45%" stroke="url(#outerGradRed) none" stroke-width="5" /><circle cx="50%" cy="50%" fill="none" r="5%" stroke="darkred" stroke-width="1.5" /><circle cx="50%" cy="50%" fill="none" r="15%" stroke="darkred" stroke-width="1.5" /><circle cx="50%" cy="50%" fill="none" r="25%" stroke="darkred" stroke-width="1.5" /><circle cx="50%" cy="50%" fill="none" r="35%" stroke="darkred" stroke-width="1.5" /><polygon fill="none" points="150,50 160,150 140,150" stroke="crimson" stroke-width="1" transform="rotate(0.0, 150, 150)" /><polygon fill="none" points="150,50 160,150 140,150" stroke="crimson" stroke-width="1" transform="rotate(60.0, 150, 150)" /><polygon fill="none" points="150,50 160,150 140,150" stroke="crimson" stroke-width="1" transform="rotate(120.0, 150, 150)" /><polygon fill="none" points="150,50 160,150 140,150" stroke="crimson" stroke-width="1" transform="rotate(180.0, 150, 150)" /><polygon fill="none" points="150,50 160,150 140,150" stroke="crimson" stroke-width="1" transform="rotate(240.0, 150, 150)" /><polygon fill="none" points="150,50 160,150 140,150" stroke="crimson" stroke-width="1" transform="rotate(300.0, 150, 150)" /><circle cx="200.0px" cy="150.0px" fill="silver" r="2px" /><circle cx="185.35533905932738px" cy="185.35533905932738px" fill="silver" r="2px" /><circle cx="150.0px" cy="200.0px" fill="silver" r="2px" /><circle cx="114.64466094067262px" cy="185.35533905932738px" fill="silver" r="2px" /><circle cx="100.0px" cy="150.0px" fill="silver" r="2px" /><circle cx="114.64466094067262px" cy="114.64466094067262px" fill="silver" r="2px" /><circle cx="150.0px" cy="100.0px" fill="silver" r="2px" /><circle cx="185.35533905932738px" cy="114.64466094067262px" fill="silver" r="2px" /><line stroke="silver" stroke-width="1" x1="75px" x2="225px" y1="150px" y2="150px" /><line stroke="silver" stroke-width="1" x1="150px" x2="150px" y1="75px" y2="225px" /></svg>