 <svg  version="1.0" xmlns="http://www.w3.org/2000/svg"  width="1198.000000pt" height="1216.000000pt" viewBox="0 0 1198.000000 1216.000000"  preserveAspectRatio="xMidYMid meet">  <g transform="translate(0.000000,1216.000000) scale(0.100000,-0.100000)" fill="#ad0054" stroke="none"> <path d="M2030 12094 c-817 -108 -1408 -504 -1747 -1169 -101 -199 -188 -452 -231 -675 -23 -116 -45 -280 -39 -286 2 -2 10 22 17 53 37 166 147 428 248 591 138 222 335 423 562 572 260 170 590 293 940 350 132 21 393 41 435 32 l25 -4 0 276 0 276 -52 -1 c-29 -1 -100 -7 -158 -15z"/> <path d="M2440 12075 c390 -114 692 -299 935 -571 327 -368 525 -898 551 -1476 l7 -148 274 0 274 0 -6 63 c-56 560 -214 991 -493 1341 -343 430 -895 724 -1520 810 -153 22 -154 20 -22 -19z"/> <path d="M2810 11844 c80 -64 232 -221 284 -293 77 -107 139 -228 180 -351 31 -94 69 -269 61 -279 -2 -2 -23 13 -47 32 -129 105 -324 173 -555 192 -86 8 -92 12 -93 70 0 34 -45 118 -84 157 -60 60 -118 83 -211 83 -63 0 -90 -5 -127 -23 -60 -30 -119 -89 -143 -144 -10 -24 -20 -44 -21 -46 -1 -2 -48 7 -105 19 -143 31 -488 34 -619 5 -279 -61 -511 -184 -720 -383 -135 -128 -251 -275 -330 -418 -37 -66 -35 -66 35 20 209 251 473 409 790 471 47 10 88 15 91 11 3 -3 -13 -29 -36 -58 -89 -113 -160 -309 -180 -499 -5 -52 -10 -102 -10 -110 0 -11 -18 -19 -60 -27 -289 -55 -339 -447 -72 -565 41 -19 44 -22 38 -51 -38 -214 -48 -309 -43 -447 3 -80 13 -185 22 -235 68 -377 310 -729 670 -977 88 -61 222 -137 170 -97 -210 163 -375 374 -456 584 -34 87 -73 232 -82 308 l-7 47 53 -39 c147 -110 331 -174 542 -188 l93 -6 7 -46 c15 -108 97 -213 192 -245 26 -9 77 -16 113 -16 119 0 233 78 272 187 10 27 16 33 33 28 169 -48 483 -63 660 -31 109 19 250 62 342 102 293 130 577 399 758 719 33 58 30 56 -59 -52 -143 -172 -339 -312 -545 -390 -127 -47 -321 -88 -321 -67 0 3 16 25 36 47 90 105 170 335 182 527 l7 105 53 7 c101 15 184 75 229 166 39 79 39 183 0 258 -30 60 -115 140 -157 149 -35 8 -37 21 -15 123 39 189 39 463 0 639 -61 269 -196 513 -395 714 -140 140 -258 232 -405 314 l-50 27 35 -28z m-372 -541 c47 -35 72 -81 72 -135 0 -102 -68 -172 -166 -172 -96 0 -164 69 -164 169 0 69 38 128 100 154 38 16 127 7 158 -16z m-386 -176 c12 -148 137 -259 293 -261 133 -1 246 81 283 205 11 38 22 59 32 59 27 0 203 -85 280 -134 310 -201 508 -475 591 -821 10 -44 19 -83 19 -86 0 -4 -27 -12 -60 -17 -196 -35 -302 -207 -243 -393 26 -81 110 -162 192 -186 75 -22 75 -16 -9 -188 -163 -331 -467 -592 -802 -689 -48 -14 -110 -28 -136 -32 l-49 -6 -6 55 c-10 99 -67 181 -159 226 -52 26 -72 31 -132 30 -39 0 -85 -6 -103 -12 -89 -33 -177 -130 -190 -210 -3 -20 -8 -39 -12 -41 -3 -2 -42 10 -87 28 -231 92 -470 286 -613 499 -83 122 -174 350 -195 485 l-6 42 35 0 c50 0 136 35 183 75 22 20 52 59 67 88 84 173 -1 370 -183 423 -51 15 -53 17 -47 42 13 52 96 216 153 301 67 101 219 262 311 331 69 52 219 134 311 170 63 25 224 69 256 70 19 0 22 -7 26 -53z m-1027 -996 c95 -44 129 -135 85 -225 -40 -83 -140 -117 -222 -77 -132 64 -128 241 7 302 51 23 80 23 130 0z m2590 -210 c16 -9 40 -31 51 -49 82 -121 -14 -276 -161 -259 -136 15 -193 192 -92 285 56 52 137 61 202 23z m-1385 -1183 c53 -37 73 -71 78 -135 3 -48 0 -64 -20 -92 -30 -44 -66 -70 -109 -80 -152 -33 -263 146 -167 269 48 61 156 80 218 38z"/> <path d="M1842 9968 l3 -373 28 -57 c16 -32 48 -75 74 -98 74 -65 106 -70 425 -70 l278 0 0 105 0 105 -278 0 c-224 0 -282 3 -298 14 -18 14 -19 31 -22 380 l-3 366 -105 0 -105 0 3 -372z"/> <path d="M10 9847 c0 -12 7 -78 15 -147 86 -735 401 -1284 946 -1651 272 -182 610 -312 973 -374 184 -31 226 -31 121 0 -370 110 -641 263 -875 494 -372 369 -602 936 -627 1544 l-6 157 -274 0 -273 0 0 -23z"/> <path d="M4470 9790 c0 -7 3 -10 7 -7 3 4 3 10 0 14 -4 3 -7 0 -7 -7z"/> <path d="M4455 9733 c-14 -77 -89 -282 -145 -398 -223 -462 -601 -794 -1120 -985 -231 -85 -473 -133 -762 -152 l-178 -12 0 -271 0 -272 58 4 c31 3 116 13 187 23 704 99 1226 411 1582 943 81 121 194 345 242 477 71 199 133 455 147 610 7 75 1 94 -11 33z"/> </g> </svg> 