<?xml version="1.0" encoding="UTF-8"?>
<svg id="Layer_2" xmlns="http://www.w3.org/2000/svg" class="lalolens-logo" viewBox="0 0 536.3 535.82">
  <defs>
    <style>
      .lalolens-logo-svg {
        fill: #0071EB   ;
      }
    </style>
  </defs>
  <g id="Layer_1-2" data-name="Layer_1">
    <path class="lalolens-logo-svg" d="M242.3,1.92C144.3,14.87,73.41,62.37,32.75,142.14c-12.11,23.87-22.55,54.22-27.71,80.97-2.76,13.91-5.4,33.59-4.68,34.31.24.24,1.2-2.64,2.04-6.36,4.44-19.91,17.63-51.34,29.75-70.89,16.55-26.63,40.18-50.74,67.41-68.61,31.19-20.39,70.77-35.15,112.75-41.98,15.83-2.52,47.14-4.92,52.18-3.84l3,.48V0l-6.24.12c-3.48.12-11.99.84-18.95,1.8Z"/>
    <path class="lalolens-logo-svg" d="M291.48,4.2c46.78,13.67,83.01,35.87,112.15,68.49,39.22,44.14,62.97,107.72,66.09,177.05l.84,17.75h65.73l-.72-7.56c-6.72-67.17-25.67-118.87-59.14-160.85C435.3,47.5,369.09,12.23,294.12,1.92c-18.35-2.64-18.47-2.4-2.64,2.28Z"/>
    <path class="lalolens-logo-svg" d="M335.86,31.91c9.6,7.68,27.83,26.51,34.07,35.15,9.24,12.83,16.67,27.35,21.59,42.1,3.72,11.28,8.28,32.27,7.32,33.47-.24.24-2.76-1.56-5.64-3.84-15.47-12.59-38.86-20.75-66.57-23.03-10.32-.96-11.04-1.44-11.16-8.4,0-4.08-5.4-14.15-10.08-18.83-7.2-7.2-14.15-9.96-25.31-9.96-7.56,0-10.8.6-15.23,2.76-7.2,3.6-14.27,10.68-17.15,17.27-1.2,2.88-2.4,5.28-2.52,5.52s-5.76-.84-12.59-2.28c-17.15-3.72-58.54-4.08-74.25-.6-33.47,7.32-61.29,22.07-86.36,45.94-16.19,15.35-30.11,32.99-39.58,50.14-4.44,7.92-4.2,7.92,4.2-2.4,25.07-30.11,56.74-49.06,94.76-56.5,5.64-1.2,10.56-1.8,10.92-1.32.36.36-1.56,3.48-4.32,6.96-10.68,13.55-19.19,37.06-21.59,59.86-.6,6.24-1.2,12.23-1.2,13.19,0,1.32-2.16,2.28-7.2,3.24-34.67,6.6-40.66,53.62-8.64,67.77,4.92,2.28,5.28,2.64,4.56,6.12-4.56,25.67-5.76,37.06-5.16,53.62.36,9.6,1.56,22.19,2.64,28.19,8.16,45.22,37.18,87.44,80.37,117.19,10.56,7.32,26.63,16.43,20.39,11.64-25.19-19.55-44.98-44.86-54.7-70.05-4.08-10.44-8.76-27.83-9.84-36.94l-.84-5.64,6.36,4.68c17.63,13.19,39.7,20.87,65.01,22.55l11.16.72.84,5.52c1.8,12.95,11.64,25.55,23.03,29.39,3.12,1.08,9.24,1.92,13.55,1.92,14.27,0,27.95-9.36,32.63-22.43,1.2-3.24,1.92-3.96,3.96-3.36,20.27,5.76,57.94,7.56,79.17,3.72,13.07-2.28,29.99-7.44,41.02-12.23,35.15-15.59,69.21-47.86,90.92-86.24,3.96-6.96,3.6-6.72-7.08,6.24-17.15,20.63-40.66,37.42-65.37,46.78-15.23,5.64-38.5,10.56-38.5,8.04,0-.36,1.92-3,4.32-5.64,10.8-12.59,20.39-40.18,21.83-63.21l.84-12.59,6.36-.84c12.11-1.8,22.07-9,27.47-19.91,4.68-9.48,4.68-21.95,0-30.95-3.6-7.2-13.79-16.79-18.83-17.87-4.2-.96-4.44-2.52-1.8-14.75,4.68-22.67,4.68-55.54,0-76.65-7.32-32.27-23.51-61.53-47.38-85.64-16.79-16.79-30.95-27.83-48.58-37.66l-6-3.24,4.2,3.36ZM291.24,96.8c5.64,4.2,8.64,9.72,8.64,16.19,0,12.23-8.16,20.63-19.91,20.63s-19.67-8.28-19.67-20.27c0-8.28,4.56-15.35,11.99-18.47,4.56-1.92,15.23-.84,18.95,1.92ZM244.94,117.91c1.44,17.75,16.43,31.07,35.15,31.31,15.95.12,29.51-9.72,33.95-24.59,1.32-4.56,2.64-7.08,3.84-7.08,3.24,0,24.35,10.2,33.59,16.07,37.18,24.11,60.93,56.98,70.89,98.48,1.2,5.28,2.28,9.96,2.28,10.32,0,.48-3.24,1.44-7.2,2.04-23.51,4.2-36.22,24.83-29.15,47.14,3.12,9.72,13.19,19.43,23.03,22.31,9,2.64,9,1.92-1.08,22.55-19.55,39.7-56.02,71.01-96.2,82.65-5.76,1.68-13.19,3.36-16.31,3.84l-5.88.72-.72-6.6c-1.2-11.88-8.04-21.71-19.07-27.11-6.24-3.12-8.64-3.72-15.83-3.6-4.68,0-10.2.72-12.35,1.44-10.68,3.96-21.23,15.59-22.79,25.19-.36,2.4-.96,4.68-1.44,4.92-.36.24-5.04-1.2-10.44-3.36-27.71-11.04-56.38-34.31-73.53-59.86-9.96-14.63-20.87-41.98-23.39-58.18l-.72-5.04h4.2c6,0,16.31-4.2,21.95-9,2.64-2.4,6.24-7.08,8.04-10.56,10.08-20.75-.12-44.38-21.95-50.74-6.12-1.8-6.36-2.04-5.64-5.04,1.56-6.24,11.52-25.91,18.35-36.1,8.04-12.11,26.27-31.43,37.3-39.7,8.28-6.24,26.27-16.07,37.3-20.39,7.56-3,26.87-8.28,30.71-8.4,2.28,0,2.64.84,3.12,6.36ZM121.75,237.38c11.4,5.28,15.47,16.19,10.2,26.99-4.8,9.96-16.79,14.03-26.63,9.24-15.83-7.68-15.35-28.91.84-36.22,6.12-2.76,9.6-2.76,15.59,0ZM432.42,262.57c1.92,1.08,4.8,3.72,6.12,5.88,9.84,14.51-1.68,33.11-19.31,31.07-16.31-1.8-23.15-23.03-11.04-34.19,6.72-6.24,16.43-7.32,24.23-2.76ZM266.29,404.47c6.36,4.44,8.76,8.52,9.36,16.19.36,5.76,0,7.68-2.4,11.04-3.6,5.28-7.92,8.4-13.07,9.6-18.23,3.96-31.55-17.51-20.03-32.27,5.76-7.32,18.71-9.6,26.15-4.56Z"/>
    <path class="lalolens-logo-svg" d="M219.75,256.93l.36,44.74,3.36,6.84c1.92,3.84,5.76,9,8.88,11.76,8.88,7.8,12.71,8.4,50.98,8.4h33.35v-25.19h-33.35c-26.87,0-33.83-.36-35.75-1.68-2.16-1.68-2.28-3.72-2.64-45.58l-.36-43.9h-25.19l.36,44.62Z"/>
    <path class="lalolens-logo-svg" d="M0,271.45c0,1.44.84,9.36,1.8,17.63,10.32,88.16,48.1,154.02,113.47,198.04,32.63,21.83,73.17,37.42,116.71,44.86,22.07,3.72,27.11,3.72,14.51,0-44.38-13.19-76.89-31.55-104.96-59.26-44.62-44.26-72.21-112.27-75.21-185.2l-.72-18.83H0v2.76Z"/>
    <path class="lalolens-logo-svg" d="M534.98,278.28c0,.84.36,1.2.84.84.36-.48.36-1.2,0-1.68-.48-.36-.84,0-.84.84Z"/>
    <path class="lalolens-logo-svg" d="M533.18,285.12c-1.68,9.24-10.68,33.83-17.39,47.74-26.75,55.42-72.09,95.24-134.34,118.15-27.71,10.2-56.74,15.95-91.4,18.23l-21.35,1.44v65.13l6.96-.48c3.72-.36,13.91-1.56,22.43-2.76,84.44-11.88,147.06-49.3,189.76-113.11,9.72-14.51,23.27-41.38,29.03-57.22,8.52-23.87,15.95-54.58,17.63-73.17.84-9,.12-11.28-1.32-3.96Z"/>
  </g>
</svg>